<?xml version="1.0" standalone="no"?><!DOCTYPE svg PUBLIC "-//W3C//DTD SVG 1.1//EN" "http://www.w3.org/Graphics/SVG/1.1/DTD/svg11.dtd"><svg t="1504270591782" class="icon" style="" viewBox="0 0 1024 1024" version="1.1" xmlns="http://www.w3.org/2000/svg" p-id="3694" xmlns:xlink="http://www.w3.org/1999/xlink" width="40" height="40"><defs><style type="text/css"></style></defs><path d="M512 64C264.576 64 64 264.576 64 512s200.576 448 448 448 448-200.576 448-448S759.424 64 512 64z m-0.75 208h1.5c17.259 0 30.643 13.977 29.886 31.375l-13.938 320.576C528.312 632.814 520.898 640 512 640c-8.837 0-16.306-7.022-16.698-16.049l-13.938-320.576C480.61 286.047 493.887 272 511.25 272z m0.75 480c-17.673 0-32-14.327-32-32s14.327-32 32-32 32 14.327 32 32-14.327 32-32 32z" fill="#1296db" p-id="3695"></path></svg>